<mxfile host="Electron" modified="2024-04-13T00:41:08.376Z" agent="Mozilla/5.0 (X11; Linux x86_64) AppleWebKit/537.36 (KHTML, like Gecko) draw.io/23.1.5 Chrome/120.0.6099.291 Electron/28.2.7 Safari/537.36" etag="ZijGQQjNE54QEprdWc4U" version="23.1.5" type="device">
  <diagram name="Page-1" id="P6LAiym1Qo-3_L6eZ71K">
    <mxGraphModel dx="768" dy="452" grid="1" gridSize="10" guides="1" tooltips="1" connect="1" arrows="1" fold="1" page="1" pageScale="1" pageWidth="850" pageHeight="1100" background="none" math="0" shadow="0">
      <root>
        <mxCell id="0" />
        <mxCell id="1" parent="0" />
        <mxCell id="w5COLIld3eXna8TZJXDG-129" value="" style="rounded=0;whiteSpace=wrap;html=1;fillColor=none;strokeColor=none;" vertex="1" parent="1">
          <mxGeometry x="120" y="150" width="840" height="260" as="geometry" />
        </mxCell>
        <mxCell id="w5COLIld3eXna8TZJXDG-1" value="" style="shape=table;startSize=0;container=1;collapsible=0;childLayout=tableLayout;fontSize=16;" vertex="1" parent="1">
          <mxGeometry x="330" y="190" width="140" height="190" as="geometry" />
        </mxCell>
        <mxCell id="w5COLIld3eXna8TZJXDG-2" value="" style="shape=tableRow;horizontal=0;startSize=0;swimlaneHead=0;swimlaneBody=0;strokeColor=inherit;top=0;left=0;bottom=0;right=0;collapsible=0;dropTarget=0;fillColor=none;points=[[0,0.5],[1,0.5]];portConstraint=eastwest;fontSize=16;" vertex="1" parent="w5COLIld3eXna8TZJXDG-1">
          <mxGeometry width="140" height="33" as="geometry" />
        </mxCell>
        <mxCell id="w5COLIld3eXna8TZJXDG-3" value="Index" style="shape=partialRectangle;html=1;whiteSpace=wrap;connectable=0;strokeColor=inherit;overflow=hidden;fillColor=none;top=0;left=0;bottom=0;right=0;pointerEvents=1;fontSize=16;" vertex="1" parent="w5COLIld3eXna8TZJXDG-2">
          <mxGeometry width="110" height="33" as="geometry">
            <mxRectangle width="110" height="33" as="alternateBounds" />
          </mxGeometry>
        </mxCell>
        <mxCell id="w5COLIld3eXna8TZJXDG-4" value="" style="shape=partialRectangle;html=1;whiteSpace=wrap;connectable=0;strokeColor=inherit;overflow=hidden;fillColor=none;top=0;left=0;bottom=0;right=0;pointerEvents=1;fontSize=16;" vertex="1" parent="w5COLIld3eXna8TZJXDG-2">
          <mxGeometry x="110" width="30" height="33" as="geometry">
            <mxRectangle width="30" height="33" as="alternateBounds" />
          </mxGeometry>
        </mxCell>
        <mxCell id="w5COLIld3eXna8TZJXDG-6" value="" style="shape=tableRow;horizontal=0;startSize=0;swimlaneHead=0;swimlaneBody=0;strokeColor=inherit;top=0;left=0;bottom=0;right=0;collapsible=0;dropTarget=0;fillColor=none;points=[[0,0.5],[1,0.5]];portConstraint=eastwest;fontSize=16;" vertex="1" parent="w5COLIld3eXna8TZJXDG-1">
          <mxGeometry y="33" width="140" height="30" as="geometry" />
        </mxCell>
        <mxCell id="w5COLIld3eXna8TZJXDG-7" value="0" style="shape=partialRectangle;html=1;whiteSpace=wrap;connectable=0;strokeColor=inherit;overflow=hidden;fillColor=none;top=0;left=0;bottom=0;right=0;pointerEvents=1;fontSize=16;" vertex="1" parent="w5COLIld3eXna8TZJXDG-6">
          <mxGeometry width="110" height="30" as="geometry">
            <mxRectangle width="110" height="30" as="alternateBounds" />
          </mxGeometry>
        </mxCell>
        <mxCell id="w5COLIld3eXna8TZJXDG-8" value="" style="shape=partialRectangle;html=1;whiteSpace=wrap;connectable=0;strokeColor=inherit;overflow=hidden;fillColor=none;top=0;left=0;bottom=0;right=0;pointerEvents=1;fontSize=16;" vertex="1" parent="w5COLIld3eXna8TZJXDG-6">
          <mxGeometry x="110" width="30" height="30" as="geometry">
            <mxRectangle width="30" height="30" as="alternateBounds" />
          </mxGeometry>
        </mxCell>
        <mxCell id="w5COLIld3eXna8TZJXDG-10" value="" style="shape=tableRow;horizontal=0;startSize=0;swimlaneHead=0;swimlaneBody=0;strokeColor=inherit;top=0;left=0;bottom=0;right=0;collapsible=0;dropTarget=0;fillColor=none;points=[[0,0.5],[1,0.5]];portConstraint=eastwest;fontSize=16;" vertex="1" parent="w5COLIld3eXna8TZJXDG-1">
          <mxGeometry y="63" width="140" height="32" as="geometry" />
        </mxCell>
        <mxCell id="w5COLIld3eXna8TZJXDG-11" value="1" style="shape=partialRectangle;html=1;whiteSpace=wrap;connectable=0;strokeColor=inherit;overflow=hidden;fillColor=none;top=0;left=0;bottom=0;right=0;pointerEvents=1;fontSize=16;" vertex="1" parent="w5COLIld3eXna8TZJXDG-10">
          <mxGeometry width="110" height="32" as="geometry">
            <mxRectangle width="110" height="32" as="alternateBounds" />
          </mxGeometry>
        </mxCell>
        <mxCell id="w5COLIld3eXna8TZJXDG-12" value="" style="shape=partialRectangle;html=1;whiteSpace=wrap;connectable=0;strokeColor=inherit;overflow=hidden;fillColor=none;top=0;left=0;bottom=0;right=0;pointerEvents=1;fontSize=16;" vertex="1" parent="w5COLIld3eXna8TZJXDG-10">
          <mxGeometry x="110" width="30" height="32" as="geometry">
            <mxRectangle width="30" height="32" as="alternateBounds" />
          </mxGeometry>
        </mxCell>
        <mxCell id="w5COLIld3eXna8TZJXDG-20" style="shape=tableRow;horizontal=0;startSize=0;swimlaneHead=0;swimlaneBody=0;strokeColor=inherit;top=0;left=0;bottom=0;right=0;collapsible=0;dropTarget=0;fillColor=none;points=[[0,0.5],[1,0.5]];portConstraint=eastwest;fontSize=16;" vertex="1" parent="w5COLIld3eXna8TZJXDG-1">
          <mxGeometry y="95" width="140" height="32" as="geometry" />
        </mxCell>
        <mxCell id="w5COLIld3eXna8TZJXDG-21" value="2" style="shape=partialRectangle;html=1;whiteSpace=wrap;connectable=0;strokeColor=inherit;overflow=hidden;fillColor=none;top=0;left=0;bottom=0;right=0;pointerEvents=1;fontSize=16;" vertex="1" parent="w5COLIld3eXna8TZJXDG-20">
          <mxGeometry width="110" height="32" as="geometry">
            <mxRectangle width="110" height="32" as="alternateBounds" />
          </mxGeometry>
        </mxCell>
        <mxCell id="w5COLIld3eXna8TZJXDG-22" style="shape=partialRectangle;html=1;whiteSpace=wrap;connectable=0;strokeColor=inherit;overflow=hidden;fillColor=none;top=0;left=0;bottom=0;right=0;pointerEvents=1;fontSize=16;" vertex="1" parent="w5COLIld3eXna8TZJXDG-20">
          <mxGeometry x="110" width="30" height="32" as="geometry">
            <mxRectangle width="30" height="32" as="alternateBounds" />
          </mxGeometry>
        </mxCell>
        <mxCell id="w5COLIld3eXna8TZJXDG-17" style="shape=tableRow;horizontal=0;startSize=0;swimlaneHead=0;swimlaneBody=0;strokeColor=inherit;top=0;left=0;bottom=0;right=0;collapsible=0;dropTarget=0;fillColor=none;points=[[0,0.5],[1,0.5]];portConstraint=eastwest;fontSize=16;" vertex="1" parent="w5COLIld3eXna8TZJXDG-1">
          <mxGeometry y="127" width="140" height="31" as="geometry" />
        </mxCell>
        <mxCell id="w5COLIld3eXna8TZJXDG-18" value="3" style="shape=partialRectangle;html=1;whiteSpace=wrap;connectable=0;strokeColor=inherit;overflow=hidden;fillColor=none;top=0;left=0;bottom=0;right=0;pointerEvents=1;fontSize=16;" vertex="1" parent="w5COLIld3eXna8TZJXDG-17">
          <mxGeometry width="110" height="31" as="geometry">
            <mxRectangle width="110" height="31" as="alternateBounds" />
          </mxGeometry>
        </mxCell>
        <mxCell id="w5COLIld3eXna8TZJXDG-19" style="shape=partialRectangle;html=1;whiteSpace=wrap;connectable=0;strokeColor=inherit;overflow=hidden;fillColor=none;top=0;left=0;bottom=0;right=0;pointerEvents=1;fontSize=16;" vertex="1" parent="w5COLIld3eXna8TZJXDG-17">
          <mxGeometry x="110" width="30" height="31" as="geometry">
            <mxRectangle width="30" height="31" as="alternateBounds" />
          </mxGeometry>
        </mxCell>
        <mxCell id="w5COLIld3eXna8TZJXDG-14" style="shape=tableRow;horizontal=0;startSize=0;swimlaneHead=0;swimlaneBody=0;strokeColor=inherit;top=0;left=0;bottom=0;right=0;collapsible=0;dropTarget=0;fillColor=none;points=[[0,0.5],[1,0.5]];portConstraint=eastwest;fontSize=16;" vertex="1" parent="w5COLIld3eXna8TZJXDG-1">
          <mxGeometry y="158" width="140" height="32" as="geometry" />
        </mxCell>
        <mxCell id="w5COLIld3eXna8TZJXDG-15" value="4" style="shape=partialRectangle;html=1;whiteSpace=wrap;connectable=0;strokeColor=inherit;overflow=hidden;fillColor=none;top=0;left=0;bottom=0;right=0;pointerEvents=1;fontSize=16;" vertex="1" parent="w5COLIld3eXna8TZJXDG-14">
          <mxGeometry width="110" height="32" as="geometry">
            <mxRectangle width="110" height="32" as="alternateBounds" />
          </mxGeometry>
        </mxCell>
        <mxCell id="w5COLIld3eXna8TZJXDG-16" style="shape=partialRectangle;html=1;whiteSpace=wrap;connectable=0;strokeColor=inherit;overflow=hidden;fillColor=none;top=0;left=0;bottom=0;right=0;pointerEvents=1;fontSize=16;" vertex="1" parent="w5COLIld3eXna8TZJXDG-14">
          <mxGeometry x="110" width="30" height="32" as="geometry">
            <mxRectangle width="30" height="32" as="alternateBounds" />
          </mxGeometry>
        </mxCell>
        <mxCell id="w5COLIld3eXna8TZJXDG-26" value="" style="shape=table;startSize=0;container=1;collapsible=0;childLayout=tableLayout;fontSize=16;" vertex="1" parent="1">
          <mxGeometry x="520" y="190" width="200" height="30" as="geometry" />
        </mxCell>
        <mxCell id="w5COLIld3eXna8TZJXDG-27" value="" style="shape=tableRow;horizontal=0;startSize=0;swimlaneHead=0;swimlaneBody=0;strokeColor=inherit;top=0;left=0;bottom=0;right=0;collapsible=0;dropTarget=0;fillColor=none;points=[[0,0.5],[1,0.5]];portConstraint=eastwest;fontSize=16;" vertex="1" parent="w5COLIld3eXna8TZJXDG-26">
          <mxGeometry width="200" height="30" as="geometry" />
        </mxCell>
        <mxCell id="w5COLIld3eXna8TZJXDG-28" value="Abc" style="shape=partialRectangle;html=1;whiteSpace=wrap;connectable=0;strokeColor=inherit;overflow=hidden;fillColor=none;top=0;left=0;bottom=0;right=0;pointerEvents=1;fontSize=16;" vertex="1" parent="w5COLIld3eXna8TZJXDG-27">
          <mxGeometry width="100" height="30" as="geometry">
            <mxRectangle width="100" height="30" as="alternateBounds" />
          </mxGeometry>
        </mxCell>
        <mxCell id="w5COLIld3eXna8TZJXDG-29" value="125" style="shape=partialRectangle;html=1;whiteSpace=wrap;connectable=0;strokeColor=inherit;overflow=hidden;fillColor=none;top=0;left=0;bottom=0;right=0;pointerEvents=1;fontSize=16;" vertex="1" parent="w5COLIld3eXna8TZJXDG-27">
          <mxGeometry x="100" width="100" height="30" as="geometry">
            <mxRectangle width="100" height="30" as="alternateBounds" />
          </mxGeometry>
        </mxCell>
        <mxCell id="w5COLIld3eXna8TZJXDG-39" value="" style="shape=table;startSize=0;container=1;collapsible=0;childLayout=tableLayout;fontSize=16;" vertex="1" parent="1">
          <mxGeometry x="520" y="230" width="200" height="30" as="geometry" />
        </mxCell>
        <mxCell id="w5COLIld3eXna8TZJXDG-40" value="" style="shape=tableRow;horizontal=0;startSize=0;swimlaneHead=0;swimlaneBody=0;strokeColor=inherit;top=0;left=0;bottom=0;right=0;collapsible=0;dropTarget=0;fillColor=none;points=[[0,0.5],[1,0.5]];portConstraint=eastwest;fontSize=16;" vertex="1" parent="w5COLIld3eXna8TZJXDG-39">
          <mxGeometry width="200" height="30" as="geometry" />
        </mxCell>
        <mxCell id="w5COLIld3eXna8TZJXDG-41" value="Hello" style="shape=partialRectangle;html=1;whiteSpace=wrap;connectable=0;strokeColor=inherit;overflow=hidden;fillColor=none;top=0;left=0;bottom=0;right=0;pointerEvents=1;fontSize=16;" vertex="1" parent="w5COLIld3eXna8TZJXDG-40">
          <mxGeometry width="100" height="30" as="geometry">
            <mxRectangle width="100" height="30" as="alternateBounds" />
          </mxGeometry>
        </mxCell>
        <mxCell id="w5COLIld3eXna8TZJXDG-42" value="246" style="shape=partialRectangle;html=1;whiteSpace=wrap;connectable=0;strokeColor=inherit;overflow=hidden;fillColor=none;top=0;left=0;bottom=0;right=0;pointerEvents=1;fontSize=16;" vertex="1" parent="w5COLIld3eXna8TZJXDG-40">
          <mxGeometry x="100" width="100" height="30" as="geometry">
            <mxRectangle width="100" height="30" as="alternateBounds" />
          </mxGeometry>
        </mxCell>
        <mxCell id="w5COLIld3eXna8TZJXDG-44" value="" style="shape=table;startSize=0;container=1;collapsible=0;childLayout=tableLayout;fontSize=16;" vertex="1" parent="1">
          <mxGeometry x="520" y="270" width="200" height="30" as="geometry" />
        </mxCell>
        <mxCell id="w5COLIld3eXna8TZJXDG-45" value="" style="shape=tableRow;horizontal=0;startSize=0;swimlaneHead=0;swimlaneBody=0;strokeColor=inherit;top=0;left=0;bottom=0;right=0;collapsible=0;dropTarget=0;fillColor=none;points=[[0,0.5],[1,0.5]];portConstraint=eastwest;fontSize=16;" vertex="1" parent="w5COLIld3eXna8TZJXDG-44">
          <mxGeometry width="200" height="30" as="geometry" />
        </mxCell>
        <mxCell id="w5COLIld3eXna8TZJXDG-46" value="Lorem" style="shape=partialRectangle;html=1;whiteSpace=wrap;connectable=0;strokeColor=inherit;overflow=hidden;fillColor=none;top=0;left=0;bottom=0;right=0;pointerEvents=1;fontSize=16;" vertex="1" parent="w5COLIld3eXna8TZJXDG-45">
          <mxGeometry width="100" height="30" as="geometry">
            <mxRectangle width="100" height="30" as="alternateBounds" />
          </mxGeometry>
        </mxCell>
        <mxCell id="w5COLIld3eXna8TZJXDG-47" value="17" style="shape=partialRectangle;html=1;whiteSpace=wrap;connectable=0;strokeColor=inherit;overflow=hidden;fillColor=none;top=0;left=0;bottom=0;right=0;pointerEvents=1;fontSize=16;" vertex="1" parent="w5COLIld3eXna8TZJXDG-45">
          <mxGeometry x="100" width="100" height="30" as="geometry">
            <mxRectangle width="100" height="30" as="alternateBounds" />
          </mxGeometry>
        </mxCell>
        <mxCell id="w5COLIld3eXna8TZJXDG-49" value="" style="shape=table;startSize=0;container=1;collapsible=0;childLayout=tableLayout;fontSize=16;" vertex="1" parent="1">
          <mxGeometry x="520" y="310" width="200" height="30" as="geometry" />
        </mxCell>
        <mxCell id="w5COLIld3eXna8TZJXDG-50" value="" style="shape=tableRow;horizontal=0;startSize=0;swimlaneHead=0;swimlaneBody=0;strokeColor=inherit;top=0;left=0;bottom=0;right=0;collapsible=0;dropTarget=0;fillColor=none;points=[[0,0.5],[1,0.5]];portConstraint=eastwest;fontSize=16;" vertex="1" parent="w5COLIld3eXna8TZJXDG-49">
          <mxGeometry width="200" height="30" as="geometry" />
        </mxCell>
        <mxCell id="w5COLIld3eXna8TZJXDG-51" value="Ipsum" style="shape=partialRectangle;html=1;whiteSpace=wrap;connectable=0;strokeColor=inherit;overflow=hidden;fillColor=none;top=0;left=0;bottom=0;right=0;pointerEvents=1;fontSize=16;" vertex="1" parent="w5COLIld3eXna8TZJXDG-50">
          <mxGeometry width="100" height="30" as="geometry">
            <mxRectangle width="100" height="30" as="alternateBounds" />
          </mxGeometry>
        </mxCell>
        <mxCell id="w5COLIld3eXna8TZJXDG-52" value="103" style="shape=partialRectangle;html=1;whiteSpace=wrap;connectable=0;strokeColor=inherit;overflow=hidden;fillColor=none;top=0;left=0;bottom=0;right=0;pointerEvents=1;fontSize=16;" vertex="1" parent="w5COLIld3eXna8TZJXDG-50">
          <mxGeometry x="100" width="100" height="30" as="geometry">
            <mxRectangle width="100" height="30" as="alternateBounds" />
          </mxGeometry>
        </mxCell>
        <mxCell id="w5COLIld3eXna8TZJXDG-54" value="" style="shape=table;startSize=0;container=1;collapsible=0;childLayout=tableLayout;fontSize=16;" vertex="1" parent="1">
          <mxGeometry x="520" y="350" width="200" height="30" as="geometry" />
        </mxCell>
        <mxCell id="w5COLIld3eXna8TZJXDG-55" value="" style="shape=tableRow;horizontal=0;startSize=0;swimlaneHead=0;swimlaneBody=0;strokeColor=inherit;top=0;left=0;bottom=0;right=0;collapsible=0;dropTarget=0;fillColor=none;points=[[0,0.5],[1,0.5]];portConstraint=eastwest;fontSize=16;" vertex="1" parent="w5COLIld3eXna8TZJXDG-54">
          <mxGeometry width="200" height="30" as="geometry" />
        </mxCell>
        <mxCell id="w5COLIld3eXna8TZJXDG-56" value="Dolorem" style="shape=partialRectangle;html=1;whiteSpace=wrap;connectable=0;strokeColor=inherit;overflow=hidden;fillColor=none;top=0;left=0;bottom=0;right=0;pointerEvents=1;fontSize=16;" vertex="1" parent="w5COLIld3eXna8TZJXDG-55">
          <mxGeometry width="100" height="30" as="geometry">
            <mxRectangle width="100" height="30" as="alternateBounds" />
          </mxGeometry>
        </mxCell>
        <mxCell id="w5COLIld3eXna8TZJXDG-57" value="4" style="shape=partialRectangle;html=1;whiteSpace=wrap;connectable=0;strokeColor=inherit;overflow=hidden;fillColor=none;top=0;left=0;bottom=0;right=0;pointerEvents=1;fontSize=16;" vertex="1" parent="w5COLIld3eXna8TZJXDG-55">
          <mxGeometry x="100" width="100" height="30" as="geometry">
            <mxRectangle width="100" height="30" as="alternateBounds" />
          </mxGeometry>
        </mxCell>
        <mxCell id="w5COLIld3eXna8TZJXDG-78" value="" style="shape=table;startSize=0;container=1;collapsible=0;childLayout=tableLayout;fontSize=16;" vertex="1" parent="1">
          <mxGeometry x="750" y="230" width="200" height="30" as="geometry" />
        </mxCell>
        <mxCell id="w5COLIld3eXna8TZJXDG-79" value="" style="shape=tableRow;horizontal=0;startSize=0;swimlaneHead=0;swimlaneBody=0;strokeColor=inherit;top=0;left=0;bottom=0;right=0;collapsible=0;dropTarget=0;fillColor=none;points=[[0,0.5],[1,0.5]];portConstraint=eastwest;fontSize=16;" vertex="1" parent="w5COLIld3eXna8TZJXDG-78">
          <mxGeometry width="200" height="30" as="geometry" />
        </mxCell>
        <mxCell id="w5COLIld3eXna8TZJXDG-80" value="World" style="shape=partialRectangle;html=1;whiteSpace=wrap;connectable=0;strokeColor=inherit;overflow=hidden;fillColor=none;top=0;left=0;bottom=0;right=0;pointerEvents=1;fontSize=16;" vertex="1" parent="w5COLIld3eXna8TZJXDG-79">
          <mxGeometry width="100" height="30" as="geometry">
            <mxRectangle width="100" height="30" as="alternateBounds" />
          </mxGeometry>
        </mxCell>
        <mxCell id="w5COLIld3eXna8TZJXDG-81" value="36" style="shape=partialRectangle;html=1;whiteSpace=wrap;connectable=0;strokeColor=inherit;overflow=hidden;fillColor=none;top=0;left=0;bottom=0;right=0;pointerEvents=1;fontSize=16;" vertex="1" parent="w5COLIld3eXna8TZJXDG-79">
          <mxGeometry x="100" width="100" height="30" as="geometry">
            <mxRectangle width="100" height="30" as="alternateBounds" />
          </mxGeometry>
        </mxCell>
        <mxCell id="w5COLIld3eXna8TZJXDG-82" value="" style="endArrow=classic;html=1;rounded=0;exitX=1;exitY=0.5;exitDx=0;exitDy=0;entryX=0;entryY=0.5;entryDx=0;entryDy=0;fillColor=#e51400;strokeColor=#B20000;strokeWidth=2;" edge="1" parent="1" source="w5COLIld3eXna8TZJXDG-40" target="w5COLIld3eXna8TZJXDG-79">
          <mxGeometry width="50" height="50" relative="1" as="geometry">
            <mxPoint x="730" y="230" as="sourcePoint" />
            <mxPoint x="780" y="180" as="targetPoint" />
          </mxGeometry>
        </mxCell>
        <mxCell id="w5COLIld3eXna8TZJXDG-83" value="Table" style="text;html=1;align=center;verticalAlign=middle;whiteSpace=wrap;rounded=0;fontSize=20;" vertex="1" parent="1">
          <mxGeometry x="365" y="150" width="60" height="30" as="geometry" />
        </mxCell>
        <mxCell id="w5COLIld3eXna8TZJXDG-84" value="Key" style="text;html=1;align=center;verticalAlign=middle;whiteSpace=wrap;rounded=0;fontSize=20;" vertex="1" parent="1">
          <mxGeometry x="540" y="150" width="60" height="30" as="geometry" />
        </mxCell>
        <mxCell id="w5COLIld3eXna8TZJXDG-85" value="Hash" style="text;html=1;align=center;verticalAlign=middle;whiteSpace=wrap;rounded=0;fontSize=20;" vertex="1" parent="1">
          <mxGeometry x="640" y="150" width="60" height="30" as="geometry" />
        </mxCell>
        <mxCell id="w5COLIld3eXna8TZJXDG-87" value="" style="shape=table;startSize=0;container=1;collapsible=0;childLayout=tableLayout;fontSize=16;" vertex="1" parent="1">
          <mxGeometry x="130" y="170" width="100" height="30" as="geometry" />
        </mxCell>
        <mxCell id="w5COLIld3eXna8TZJXDG-88" value="" style="shape=tableRow;horizontal=0;startSize=0;swimlaneHead=0;swimlaneBody=0;strokeColor=inherit;top=0;left=0;bottom=0;right=0;collapsible=0;dropTarget=0;fillColor=none;points=[[0,0.5],[1,0.5]];portConstraint=eastwest;fontSize=16;" vertex="1" parent="w5COLIld3eXna8TZJXDG-87">
          <mxGeometry width="100" height="30" as="geometry" />
        </mxCell>
        <mxCell id="w5COLIld3eXna8TZJXDG-89" value="Abc" style="shape=partialRectangle;html=1;whiteSpace=wrap;connectable=0;strokeColor=inherit;overflow=hidden;fillColor=none;top=0;left=0;bottom=0;right=0;pointerEvents=1;fontSize=16;" vertex="1" parent="w5COLIld3eXna8TZJXDG-88">
          <mxGeometry width="100" height="30" as="geometry">
            <mxRectangle width="100" height="30" as="alternateBounds" />
          </mxGeometry>
        </mxCell>
        <mxCell id="w5COLIld3eXna8TZJXDG-95" value="" style="shape=table;startSize=0;container=1;collapsible=0;childLayout=tableLayout;fontSize=16;" vertex="1" parent="1">
          <mxGeometry x="130" y="210" width="100" height="30" as="geometry" />
        </mxCell>
        <mxCell id="w5COLIld3eXna8TZJXDG-96" value="" style="shape=tableRow;horizontal=0;startSize=0;swimlaneHead=0;swimlaneBody=0;strokeColor=inherit;top=0;left=0;bottom=0;right=0;collapsible=0;dropTarget=0;fillColor=none;points=[[0,0.5],[1,0.5]];portConstraint=eastwest;fontSize=16;" vertex="1" parent="w5COLIld3eXna8TZJXDG-95">
          <mxGeometry width="100" height="30" as="geometry" />
        </mxCell>
        <mxCell id="w5COLIld3eXna8TZJXDG-97" value="Hello" style="shape=partialRectangle;html=1;whiteSpace=wrap;connectable=0;strokeColor=inherit;overflow=hidden;fillColor=none;top=0;left=0;bottom=0;right=0;pointerEvents=1;fontSize=16;" vertex="1" parent="w5COLIld3eXna8TZJXDG-96">
          <mxGeometry width="100" height="30" as="geometry">
            <mxRectangle width="100" height="30" as="alternateBounds" />
          </mxGeometry>
        </mxCell>
        <mxCell id="w5COLIld3eXna8TZJXDG-98" value="" style="shape=table;startSize=0;container=1;collapsible=0;childLayout=tableLayout;fontSize=16;" vertex="1" parent="1">
          <mxGeometry x="130" y="250" width="100" height="30" as="geometry" />
        </mxCell>
        <mxCell id="w5COLIld3eXna8TZJXDG-99" value="" style="shape=tableRow;horizontal=0;startSize=0;swimlaneHead=0;swimlaneBody=0;strokeColor=inherit;top=0;left=0;bottom=0;right=0;collapsible=0;dropTarget=0;fillColor=none;points=[[0,0.5],[1,0.5]];portConstraint=eastwest;fontSize=16;" vertex="1" parent="w5COLIld3eXna8TZJXDG-98">
          <mxGeometry width="100" height="30" as="geometry" />
        </mxCell>
        <mxCell id="w5COLIld3eXna8TZJXDG-100" value="World" style="shape=partialRectangle;html=1;whiteSpace=wrap;connectable=0;strokeColor=inherit;overflow=hidden;fillColor=none;top=0;left=0;bottom=0;right=0;pointerEvents=1;fontSize=16;" vertex="1" parent="w5COLIld3eXna8TZJXDG-99">
          <mxGeometry width="100" height="30" as="geometry">
            <mxRectangle width="100" height="30" as="alternateBounds" />
          </mxGeometry>
        </mxCell>
        <mxCell id="w5COLIld3eXna8TZJXDG-101" value="" style="shape=table;startSize=0;container=1;collapsible=0;childLayout=tableLayout;fontSize=16;" vertex="1" parent="1">
          <mxGeometry x="130" y="290" width="100" height="30" as="geometry" />
        </mxCell>
        <mxCell id="w5COLIld3eXna8TZJXDG-102" value="" style="shape=tableRow;horizontal=0;startSize=0;swimlaneHead=0;swimlaneBody=0;strokeColor=inherit;top=0;left=0;bottom=0;right=0;collapsible=0;dropTarget=0;fillColor=none;points=[[0,0.5],[1,0.5]];portConstraint=eastwest;fontSize=16;" vertex="1" parent="w5COLIld3eXna8TZJXDG-101">
          <mxGeometry width="100" height="30" as="geometry" />
        </mxCell>
        <mxCell id="w5COLIld3eXna8TZJXDG-103" value="Lorem" style="shape=partialRectangle;html=1;whiteSpace=wrap;connectable=0;strokeColor=inherit;overflow=hidden;fillColor=none;top=0;left=0;bottom=0;right=0;pointerEvents=1;fontSize=16;" vertex="1" parent="w5COLIld3eXna8TZJXDG-102">
          <mxGeometry width="100" height="30" as="geometry">
            <mxRectangle width="100" height="30" as="alternateBounds" />
          </mxGeometry>
        </mxCell>
        <mxCell id="w5COLIld3eXna8TZJXDG-104" value="" style="shape=table;startSize=0;container=1;collapsible=0;childLayout=tableLayout;fontSize=16;" vertex="1" parent="1">
          <mxGeometry x="130" y="330" width="100" height="30" as="geometry" />
        </mxCell>
        <mxCell id="w5COLIld3eXna8TZJXDG-105" value="" style="shape=tableRow;horizontal=0;startSize=0;swimlaneHead=0;swimlaneBody=0;strokeColor=inherit;top=0;left=0;bottom=0;right=0;collapsible=0;dropTarget=0;fillColor=none;points=[[0,0.5],[1,0.5]];portConstraint=eastwest;fontSize=16;" vertex="1" parent="w5COLIld3eXna8TZJXDG-104">
          <mxGeometry width="100" height="30" as="geometry" />
        </mxCell>
        <mxCell id="w5COLIld3eXna8TZJXDG-106" value="Ipsum" style="shape=partialRectangle;html=1;whiteSpace=wrap;connectable=0;strokeColor=inherit;overflow=hidden;fillColor=none;top=0;left=0;bottom=0;right=0;pointerEvents=1;fontSize=16;" vertex="1" parent="w5COLIld3eXna8TZJXDG-105">
          <mxGeometry width="100" height="30" as="geometry">
            <mxRectangle width="100" height="30" as="alternateBounds" />
          </mxGeometry>
        </mxCell>
        <mxCell id="w5COLIld3eXna8TZJXDG-107" value="" style="shape=table;startSize=0;container=1;collapsible=0;childLayout=tableLayout;fontSize=16;" vertex="1" parent="1">
          <mxGeometry x="130" y="370" width="100" height="30" as="geometry" />
        </mxCell>
        <mxCell id="w5COLIld3eXna8TZJXDG-108" value="" style="shape=tableRow;horizontal=0;startSize=0;swimlaneHead=0;swimlaneBody=0;strokeColor=inherit;top=0;left=0;bottom=0;right=0;collapsible=0;dropTarget=0;fillColor=none;points=[[0,0.5],[1,0.5]];portConstraint=eastwest;fontSize=16;" vertex="1" parent="w5COLIld3eXna8TZJXDG-107">
          <mxGeometry width="100" height="30" as="geometry" />
        </mxCell>
        <mxCell id="w5COLIld3eXna8TZJXDG-109" value="Dolorem" style="shape=partialRectangle;html=1;whiteSpace=wrap;connectable=0;strokeColor=inherit;overflow=hidden;fillColor=none;top=0;left=0;bottom=0;right=0;pointerEvents=1;fontSize=16;" vertex="1" parent="w5COLIld3eXna8TZJXDG-108">
          <mxGeometry width="100" height="30" as="geometry">
            <mxRectangle width="100" height="30" as="alternateBounds" />
          </mxGeometry>
        </mxCell>
        <mxCell id="w5COLIld3eXna8TZJXDG-110" value="" style="endArrow=classic;html=1;rounded=0;exitX=1;exitY=0.5;exitDx=0;exitDy=0;entryX=0;entryY=0.5;entryDx=0;entryDy=0;fillColor=#60a917;strokeColor=#2D7600;strokeWidth=2;" edge="1" parent="1" source="w5COLIld3eXna8TZJXDG-88" target="w5COLIld3eXna8TZJXDG-6">
          <mxGeometry width="50" height="50" relative="1" as="geometry">
            <mxPoint x="320" y="360" as="sourcePoint" />
            <mxPoint x="370" y="310" as="targetPoint" />
          </mxGeometry>
        </mxCell>
        <mxCell id="w5COLIld3eXna8TZJXDG-118" value="" style="endArrow=classic;html=1;rounded=0;entryX=0;entryY=0.5;entryDx=0;entryDy=0;fillColor=#60a917;strokeColor=#2D7600;strokeWidth=2;" edge="1" parent="1" target="w5COLIld3eXna8TZJXDG-27">
          <mxGeometry width="50" height="50" relative="1" as="geometry">
            <mxPoint x="455" y="238" as="sourcePoint" />
            <mxPoint x="300" y="290" as="targetPoint" />
          </mxGeometry>
        </mxCell>
        <mxCell id="w5COLIld3eXna8TZJXDG-119" value="" style="endArrow=classic;html=1;rounded=0;entryX=0;entryY=0.5;entryDx=0;entryDy=0;fillColor=#e51400;strokeColor=#B20000;strokeWidth=2;" edge="1" parent="1" target="w5COLIld3eXna8TZJXDG-40">
          <mxGeometry width="50" height="50" relative="1" as="geometry">
            <mxPoint x="455" y="269" as="sourcePoint" />
            <mxPoint x="530" y="215" as="targetPoint" />
          </mxGeometry>
        </mxCell>
        <mxCell id="w5COLIld3eXna8TZJXDG-120" value="" style="endArrow=classic;html=1;rounded=0;entryX=0;entryY=0.5;entryDx=0;entryDy=0;fillColor=#60a917;strokeColor=#2D7600;strokeWidth=2;" edge="1" parent="1" target="w5COLIld3eXna8TZJXDG-45">
          <mxGeometry width="50" height="50" relative="1" as="geometry">
            <mxPoint x="455" y="302" as="sourcePoint" />
            <mxPoint x="540" y="225" as="targetPoint" />
          </mxGeometry>
        </mxCell>
        <mxCell id="w5COLIld3eXna8TZJXDG-121" value="" style="endArrow=classic;html=1;rounded=0;entryX=0;entryY=0.5;entryDx=0;entryDy=0;fillColor=#60a917;strokeColor=#2D7600;strokeWidth=2;" edge="1" parent="1" target="w5COLIld3eXna8TZJXDG-50">
          <mxGeometry width="50" height="50" relative="1" as="geometry">
            <mxPoint x="455" y="333" as="sourcePoint" />
            <mxPoint x="530" y="295" as="targetPoint" />
          </mxGeometry>
        </mxCell>
        <mxCell id="w5COLIld3eXna8TZJXDG-122" value="" style="endArrow=classic;html=1;rounded=0;entryX=0;entryY=0.5;entryDx=0;entryDy=0;fillColor=#60a917;strokeColor=#2D7600;strokeWidth=2;" edge="1" parent="1" target="w5COLIld3eXna8TZJXDG-55">
          <mxGeometry width="50" height="50" relative="1" as="geometry">
            <mxPoint x="455" y="364" as="sourcePoint" />
            <mxPoint x="540" y="305" as="targetPoint" />
          </mxGeometry>
        </mxCell>
        <mxCell id="w5COLIld3eXna8TZJXDG-123" value="" style="endArrow=classic;html=1;rounded=0;entryX=0;entryY=0.5;entryDx=0;entryDy=0;exitX=1;exitY=0.5;exitDx=0;exitDy=0;fillColor=#e51400;strokeColor=#B20000;strokeWidth=2;" edge="1" parent="1" source="w5COLIld3eXna8TZJXDG-96" target="w5COLIld3eXna8TZJXDG-10">
          <mxGeometry width="50" height="50" relative="1" as="geometry">
            <mxPoint x="250" y="286" as="sourcePoint" />
            <mxPoint x="300" y="270" as="targetPoint" />
          </mxGeometry>
        </mxCell>
        <mxCell id="w5COLIld3eXna8TZJXDG-125" value="" style="endArrow=classic;html=1;rounded=0;entryX=0;entryY=0.5;entryDx=0;entryDy=0;exitX=1;exitY=0.5;exitDx=0;exitDy=0;fillColor=#e51400;strokeColor=#B20000;strokeWidth=2;" edge="1" parent="1" source="w5COLIld3eXna8TZJXDG-99" target="w5COLIld3eXna8TZJXDG-10">
          <mxGeometry width="50" height="50" relative="1" as="geometry">
            <mxPoint x="240" y="235" as="sourcePoint" />
            <mxPoint x="340" y="279" as="targetPoint" />
          </mxGeometry>
        </mxCell>
        <mxCell id="w5COLIld3eXna8TZJXDG-126" value="" style="endArrow=classic;html=1;rounded=0;entryX=0;entryY=0.5;entryDx=0;entryDy=0;exitX=1;exitY=0.5;exitDx=0;exitDy=0;fillColor=#60a917;strokeColor=#2D7600;strokeWidth=2;" edge="1" parent="1" source="w5COLIld3eXna8TZJXDG-102" target="w5COLIld3eXna8TZJXDG-20">
          <mxGeometry width="50" height="50" relative="1" as="geometry">
            <mxPoint x="240" y="300" as="sourcePoint" />
            <mxPoint x="340" y="344" as="targetPoint" />
          </mxGeometry>
        </mxCell>
        <mxCell id="w5COLIld3eXna8TZJXDG-127" value="" style="endArrow=classic;html=1;rounded=0;entryX=0;entryY=0.5;entryDx=0;entryDy=0;exitX=1;exitY=0.5;exitDx=0;exitDy=0;fillColor=#60a917;strokeColor=#2D7600;strokeWidth=2;" edge="1" parent="1" source="w5COLIld3eXna8TZJXDG-105" target="w5COLIld3eXna8TZJXDG-17">
          <mxGeometry width="50" height="50" relative="1" as="geometry">
            <mxPoint x="260" y="255" as="sourcePoint" />
            <mxPoint x="360" y="299" as="targetPoint" />
          </mxGeometry>
        </mxCell>
        <mxCell id="w5COLIld3eXna8TZJXDG-128" value="" style="endArrow=classic;html=1;rounded=0;entryX=0;entryY=0.5;entryDx=0;entryDy=0;exitX=1;exitY=0.5;exitDx=0;exitDy=0;fillColor=#60a917;strokeColor=#2D7600;strokeWidth=2;" edge="1" parent="1" source="w5COLIld3eXna8TZJXDG-108" target="w5COLIld3eXna8TZJXDG-14">
          <mxGeometry width="50" height="50" relative="1" as="geometry">
            <mxPoint x="270" y="265" as="sourcePoint" />
            <mxPoint x="370" y="309" as="targetPoint" />
          </mxGeometry>
        </mxCell>
      </root>
    </mxGraphModel>
  </diagram>
</mxfile>
